<?xml version="1.0" standalone="no"?>
<!DOCTYPE svg PUBLIC "-//W3C//DTD SVG 20010904//EN"
 "http://www.w3.org/TR/2001/REC-SVG-20010904/DTD/svg10.dtd">
<svg version="1.0" xmlns="http://www.w3.org/2000/svg"
 width="225.000000pt" height="225.000000pt" viewBox="0 0 225.000000 225.000000"
 preserveAspectRatio="xMidYMid meet">

<g transform="translate(0.000000,225.000000) scale(0.100000,-0.100000)"
fill="#000000" stroke="none">
<path d="M1005 2239 c-311 -23 -629 -212 -808 -481 -293 -440 -252 -1000 104
-1402 62 -70 204 -176 306 -229 197 -101 396 -138 635 -117 496 43 892 408
989 910 20 105 15 339 -9 446 -85 376 -345 677 -701 810 -154 58 -314 77 -516
63z m515 -696 l0 -237 24 33 c60 81 141 115 258 109 97 -5 146 -27 201 -87 66
-73 70 -103 75 -488 l3 -343 -125 0 -124 0 -4 293 c-3 256 -5 296 -21 324 -23
43 -64 63 -127 63 -65 0 -105 -26 -134 -89 -19 -43 -21 -66 -24 -318 l-3 -273
-125 0 -124 0 0 618 c0 340 3 622 7 625 3 4 60 7 125 7 l118 0 0 -237z m-422
187 c40 -25 72 -75 72 -115 0 -63 -72 -135 -135 -135 -68 0 -135 66 -135 133
0 45 27 91 68 115 46 27 88 28 130 2z m62 -755 l0 -445 -125 0 -125 0 0 445 0
445 125 0 125 0 0 -445z"/>
</g>
</svg>
